<?xml version="1.0"?><svg version="1.1" id="圖層_1" xmlns="http://www.w3.org/2000/svg" x="0" y="0" viewBox="0 0 100 100" xml:space="preserve"><path d="M65.9 11H15.2c-2.3 0-4.2 1.9-4.2 4.2v69.6c0 2.3 1.9 4.2 4.2 4.2h69.6c2.3 0 4.2-1.9 4.2-4.2V34.1c0-2.1-.8-4.2-2.4-5.7l-15.1-15C70 11.8 68 11 65.9 11z" fill="#f47e60" stroke-linecap="round" stroke="#333" stroke-width="3.5" stroke-miterlimit="10"/><path d="M24.8 89h50.5V56.3c0-3.5-2.8-6.4-6.4-6.4H31.1c-3.5 0-6.4 2.8-6.4 6.4V89z" fill="#e0e0e0" stroke="#333" stroke-width="3.5" stroke-linecap="round" stroke-miterlimit="10"/><path d="M62.6 11H24.8v22.2c0 1.8 1.5 3.3 3.3 3.3h31.3c1.8 0 3.3-1.5 3.3-3.3V11z" fill="#e0e0e0" stroke="#333" stroke-width="3.5" stroke-linecap="round" stroke-miterlimit="10"/><metadata xmlns:d="https://loading.io/stock/">
<d:name>save</d:name>
<d:tags>save,floppy disk,dump,backup,store,storage,write</d:tags>
<d:license>by</d:license>
<d:slug>jnof5a</d:slug>
</metadata></svg>