<?xml version="1.0"?><svg version="1.1" id="Layer_1" xmlns="http://www.w3.org/2000/svg" x="0" y="0" viewBox="0 0 100 100" xml:space="preserve"><path d="M77.48 28.757L61.231 12.508c-1.191-1.166-2.28-1.727-3.276-1.732H22.589c-.943 0-1.711.762-1.711 1.698v75.051c0 .936.768 1.698 1.711 1.698h54.822c.943 0 1.711-.762 1.711-1.698V32.033c.009-.998-.508-2.085-1.642-3.276z" fill="#e0e0e0"/><path d="M62.414 28.757H77.48L61.231 12.508v15.066c0 .652.531 1.183 1.183 1.183z" fill="#666"/><path d="M80.461 26.424L62.256 8.286a2.676 2.676 0 0 0-1.902-.786H22.589c-2.75 0-4.987 2.232-4.987 4.975v75.051c0 2.743 2.237 4.975 4.987 4.975h54.822c2.75 0 4.987-2.232 4.987-4.975V31.085a6.536 6.536 0 0 0-1.937-4.661zm-2.981 2.333H62.414a1.185 1.185 0 0 1-1.183-1.183V12.508L77.48 28.757zm-.069 60.467H22.589a1.707 1.707 0 0 1-1.711-1.698V12.475c0-.936.768-1.698 1.711-1.698h35.366v16.798c0 2.459 2 4.459 4.459 4.459h16.708v55.493c0 .935-.767 1.697-1.711 1.697zM29.06 47.545c-.631 0-1.142.511-1.142 1.142V80.59c0 .631.511 1.142 1.142 1.142h41.877c.631 0 1.142-.511 1.142-1.142V48.687c0-.631-.511-1.142-1.142-1.142H29.06zm32.564 8.039h-6.395v-6.008h6.395v6.008zm0 8.039h-6.395v-6.008h6.395v6.008zm0 8.039h-6.395v-6.008h6.395v6.008zm-23.248-6.008h6.395v6.008h-6.395v-6.008zm0-8.039h6.395v6.008h-6.395v-6.008zm14.822 6.008h-6.395v-6.008h6.395v6.008zm-6.396 2.031h6.395v6.008h-6.395v-6.008zm6.396-10.07h-6.395v-6.008h6.395v6.008zm-8.427 0h-6.395v-6.008h6.395v6.008zm-14.822-6.008h6.395v6.008h-6.395v-6.008zm0 8.039h6.395v6.008h-6.395v-6.008zm0 8.039h6.395v6.008h-6.395v-6.008zm0 14.048v-6.008h6.395v6.008h-6.395zm8.427 0v-6.008h6.395v6.008h-6.395zm8.426 0v-6.008h6.395v6.008h-6.395zm8.427 0v-6.008h6.395v6.008h-6.395zm14.822 0h-6.395v-6.008h6.395v6.008zm0-8.04h-6.395v-6.008h6.395v6.008zm0-8.039h-6.395v-6.008h6.395v6.008zm0-8.039h-6.395v-6.008h6.395v6.008z" fill="#323232"/><metadata xmlns:d="https://loading.io/stock/">
<d:name>spreadsheet</d:name>
<d:tags>spreadsheet,excel,grid,calculate,accountant,staistics,data wrangling,file,cell</d:tags>
<d:license>by</d:license>
<d:slug>rbw78b</d:slug>
</metadata></svg>