<?xml version="1.0"?><svg version="1.1" id="圖層_1" xmlns="http://www.w3.org/2000/svg" x="0" y="0" viewBox="0 0 100 100" xml:space="preserve"><path d="M56.5 10.5c-8.1-1.2-16.1 0-23.3 3.5l-5.5-9.8-6.4 22.6 22.6 6.4-5.4-9.6c5.1-2.4 10.7-3.2 16.3-2.3 15.6 2.4 26.4 17.1 24 32.7S61.7 80.4 46.1 78c-6.4-1-12.1-4-16.5-8.7l-7.9 7.5c6.1 6.5 14 10.6 22.8 12C66 92.1 86.3 77.3 89.6 55.7c3.3-21.6-11.5-41.9-33.1-45.2z"/><metadata xmlns:d="https://loading.io/stock/">
<d:name>reload</d:name>
<d:tags>refresh,sync,undo,arrow,reload,web application</d:tags>
<d:license>by</d:license>
<d:slug>fgyniv</d:slug>
</metadata></svg>