<?xml version="1.0"?><svg version="1.1" id="Layer_1" xmlns="http://www.w3.org/2000/svg" x="0" y="0" viewBox="0 0 100 100" xml:space="preserve"><path fill="#fff" stroke="#333" stroke-linejoin="round" stroke-width="3.5" stroke-miterlimit="10" d="M9 16.553v66.894H59.877V16.553z"/><path fill="none" stroke-linejoin="round" stroke="#333" stroke-width="3.5" stroke-linecap="round" stroke-miterlimit="10" d="M20.306 26.917h28.265"/><path fill="none" stroke-linejoin="round" stroke="#333" stroke-width="3.5" stroke-linecap="round" stroke-miterlimit="10" d="M20.306 36.339h28.265"/><path fill="none" stroke-linejoin="round" stroke="#333" stroke-width="3.5" stroke-linecap="round" stroke-miterlimit="10" d="M20.306 45.76h28.265"/><path fill="none" stroke-linejoin="round" stroke="#333" stroke-width="3.5" stroke-linecap="round" stroke-miterlimit="10" d="M20.306 55.182h28.265"/><path fill="none" stroke-linejoin="round" stroke="#333" stroke-width="3.5" stroke-linecap="round" stroke-miterlimit="10" d="M20.306 64.604h28.265"/><path fill="none" stroke-linejoin="round" stroke="#333" stroke-width="3.5" stroke-linecap="round" stroke-miterlimit="10" d="M20.306 74.025h4.854"/><g><path stroke="#333" stroke-linejoin="round" fill="#f47e5f" stroke-width="3.499965" stroke-miterlimit="10" d="M71.68 24.985l11.992 11.991-33.31 33.31L38.37 58.295z"/><path stroke="#333" stroke-linejoin="round" fill="#f4e6c8" stroke-width="3.499965" stroke-miterlimit="10" d="M79.008 17.656l11.991 11.992-7.328 7.328-11.992-11.992z"/><path d="M50.098 70.551L38.106 58.559l-4.289 15.319a.78.78 0 0 0 .962.962l15.319-4.289z" stroke-width="3.5" stroke-miterlimit="10" fill="#f7b26a" stroke="#333" stroke-linejoin="round"/><path fill="none" stroke-linejoin="round" stroke="#333" stroke-width="3.5" stroke-linecap="round" stroke-miterlimit="10" d="M51.354 57.956L71.341 37.97"/><path d="M35.419 68.156l-1.602 5.722a.78.78 0 0 0 .962.962l5.722-1.602-5.082-5.082z" stroke-width="3.5" stroke-miterlimit="10" fill="#333" stroke-linecap="round" stroke="#333" stroke-linejoin="round"/></g><metadata xmlns:d="https://loading.io/stock/">
<d:name>text</d:name>
<d:tags>text,document,article,write,writer,editor,composer,journalism,news reporter,journalist,author</d:tags>
<d:license>by</d:license>
<d:slug>ygrbbq</d:slug>
</metadata></svg>